<?xml version="1.0" encoding="UTF-8" standalone="no"?><!DOCTYPE svg PUBLIC "-//W3C//DTD SVG 1.1//EN" "http://www.w3.org/Graphics/SVG/1.1/DTD/svg11.dtd"><!-- Generated by graphviz version 2.40.1 (20161225.0304)
 --><!-- Title: G Pages: 1 --><svg xmlns="http://www.w3.org/2000/svg" xmlns:xlink="http://www.w3.org/1999/xlink" width="378pt" height="1110pt" viewBox="0.00 0.00 378.00 1109.60">
<g id="graph0" class="graph" transform="scale(1 1) rotate(0) translate(4 1105.6)">
<title>G</title>
<polygon fill="#ffffff" stroke="transparent" points="-4,4 -4,-1105.6 374,-1105.6 374,4 -4,4"/>
<!-- 0 -->
<g id="node1" class="node">
<title>0</title>
<ellipse fill="none" stroke="#000000" cx="195" cy="-1083.6" rx="27" ry="18"/>
<text text-anchor="middle" x="195" y="-1079.4" font-family="Times,serif" font-size="14.00" fill="#000000">0</text>
</g>
<!-- 1 -->
<g id="node2" class="node">
<title>1</title>
<ellipse fill="none" stroke="#000000" cx="195" cy="-994.8" rx="27" ry="18"/>
<text text-anchor="middle" x="195" y="-990.6" font-family="Times,serif" font-size="14.00" fill="#000000">1</text>
</g>
<!-- 0&#45;&gt;1 -->
<g id="edge1" class="edge">
<title>0-&gt;1</title>
<path fill="none" stroke="#000000" d="M195,-1065.2006C195,-1053.0949 195,-1037.0076 195,-1023.2674"/>
<polygon fill="#000000" stroke="#000000" points="198.5001,-1022.872 195,-1012.872 191.5001,-1022.8721 198.5001,-1022.872"/>
<text text-anchor="middle" x="205.5" y="-1035" font-family="Times,serif" font-size="14.00" fill="#000000">159</text>
</g>
<!-- 3 -->
<g id="node3" class="node">
<title>3</title>
<ellipse fill="none" stroke="#000000" cx="159" cy="-906" rx="27" ry="18"/>
<text text-anchor="middle" x="159" y="-901.8" font-family="Times,serif" font-size="14.00" fill="#000000">3</text>
</g>
<!-- 1&#45;&gt;3 -->
<g id="edge2" class="edge">
<title>1-&gt;3</title>
<path fill="none" stroke="#000000" d="M187.8876,-977.256C182.7596,-964.6071 175.7433,-947.3002 169.9097,-932.9105"/>
<polygon fill="#000000" stroke="#000000" points="173.0984,-931.46 166.0977,-923.5076 166.6112,-934.09 173.0984,-931.46"/>
<text text-anchor="middle" x="190.5" y="-946.2" font-family="Times,serif" font-size="14.00" fill="#000000">138</text>
</g>
<!-- 2 -->
<g id="node4" class="node">
<title>2</title>
<ellipse fill="none" stroke="#000000" cx="231" cy="-906" rx="27" ry="18"/>
<text text-anchor="middle" x="231" y="-901.8" font-family="Times,serif" font-size="14.00" fill="#000000">2</text>
</g>
<!-- 1&#45;&gt;2 -->
<g id="edge3" class="edge">
<title>1-&gt;2</title>
<path fill="none" stroke="#000000" d="M202.1124,-977.256C207.2404,-964.6071 214.2567,-947.3002 220.0903,-932.9105"/>
<polygon fill="#000000" stroke="#000000" points="223.3888,-934.09 223.9023,-923.5076 216.9016,-931.46 223.3888,-934.09"/>
<text text-anchor="middle" x="223" y="-946.2" font-family="Times,serif" font-size="14.00" fill="#000000">80</text>
</g>
<!-- 4 -->
<g id="node5" class="node">
<title>4</title>
<ellipse fill="none" stroke="#000000" cx="190" cy="-817.2" rx="27" ry="18"/>
<text text-anchor="middle" x="190" y="-813" font-family="Times,serif" font-size="14.00" fill="#000000">4</text>
</g>
<!-- 3&#45;&gt;4 -->
<g id="edge6" class="edge">
<title>3-&gt;4</title>
<path fill="none" stroke="#000000" d="M165.1246,-888.456C169.4695,-876.0101 175.3886,-859.0545 180.363,-844.8055"/>
<polygon fill="#000000" stroke="#000000" points="183.7905,-845.6064 183.782,-835.0115 177.1816,-843.2992 183.7905,-845.6064"/>
<text text-anchor="middle" x="185" y="-857.4" font-family="Times,serif" font-size="14.00" fill="#000000">72</text>
</g>
<!-- 6 -->
<g id="node7" class="node">
<title>6</title>
<ellipse fill="none" stroke="#000000" cx="118" cy="-817.2" rx="27" ry="18"/>
<text text-anchor="middle" x="118" y="-813" font-family="Times,serif" font-size="14.00" fill="#000000">6</text>
</g>
<!-- 3&#45;&gt;6 -->
<g id="edge7" class="edge">
<title>3-&gt;6</title>
<path fill="none" stroke="#000000" d="M150.8997,-888.456C145.0217,-875.725 136.9649,-858.2753 130.2957,-843.8306"/>
<polygon fill="#000000" stroke="#000000" points="133.3135,-842.0172 125.9439,-834.4054 126.9582,-844.9516 133.3135,-842.0172"/>
<text text-anchor="middle" x="153.5" y="-857.4" font-family="Times,serif" font-size="14.00" fill="#000000">334</text>
</g>
<!-- 2&#45;&gt;4 -->
<g id="edge4" class="edge">
<title>2-&gt;4</title>
<path fill="none" stroke="#000000" d="M222.8997,-888.456C217.0217,-875.725 208.9649,-858.2753 202.2957,-843.8306"/>
<polygon fill="#000000" stroke="#000000" points="205.3135,-842.0172 197.9439,-834.4054 198.9582,-844.9516 205.3135,-842.0172"/>
<text text-anchor="middle" x="224.5" y="-857.4" font-family="Times,serif" font-size="14.00" fill="#000000">170</text>
</g>
<!-- 5 -->
<g id="node6" class="node">
<title>5</title>
<ellipse fill="none" stroke="#000000" cx="262" cy="-817.2" rx="27" ry="18"/>
<text text-anchor="middle" x="262" y="-813" font-family="Times,serif" font-size="14.00" fill="#000000">5</text>
</g>
<!-- 2&#45;&gt;5 -->
<g id="edge5" class="edge">
<title>2-&gt;5</title>
<path fill="none" stroke="#000000" d="M237.1246,-888.456C241.4695,-876.0101 247.3886,-859.0545 252.363,-844.8055"/>
<polygon fill="#000000" stroke="#000000" points="255.7905,-845.6064 255.782,-835.0115 249.1816,-843.2992 255.7905,-845.6064"/>
<text text-anchor="middle" x="259.5" y="-857.4" font-family="Times,serif" font-size="14.00" fill="#000000">310</text>
</g>
<!-- 11 -->
<g id="node8" class="node">
<title>11</title>
<ellipse fill="none" stroke="#000000" cx="227" cy="-728.4" rx="27" ry="18"/>
<text text-anchor="middle" x="227" y="-724.2" font-family="Times,serif" font-size="14.00" fill="#000000">11</text>
</g>
<!-- 4&#45;&gt;11 -->
<g id="edge8" class="edge">
<title>4-&gt;11</title>
<path fill="none" stroke="#000000" d="M197.31,-799.656C202.5804,-787.0071 209.7916,-769.7002 215.7873,-755.3105"/>
<polygon fill="#000000" stroke="#000000" points="219.0897,-756.4845 219.7052,-745.9076 212.6282,-753.7922 219.0897,-756.4845"/>
<text text-anchor="middle" x="221.5" y="-768.6" font-family="Times,serif" font-size="14.00" fill="#000000">232</text>
</g>
<!-- 9 -->
<g id="node9" class="node">
<title>9</title>
<ellipse fill="none" stroke="#000000" cx="155" cy="-728.4" rx="27" ry="18"/>
<text text-anchor="middle" x="155" y="-724.2" font-family="Times,serif" font-size="14.00" fill="#000000">9</text>
</g>
<!-- 4&#45;&gt;9 -->
<g id="edge9" class="edge">
<title>4-&gt;9</title>
<path fill="none" stroke="#000000" d="M177.9738,-801.0108C173.9962,-795.0327 169.8608,-788.0427 167,-781.2 163.7366,-773.3944 161.2846,-764.5512 159.4768,-756.3647"/>
<polygon fill="#000000" stroke="#000000" points="162.8942,-755.604 157.519,-746.474 156.0275,-756.9633 162.8942,-755.604"/>
<text text-anchor="middle" x="177.5" y="-768.6" font-family="Times,serif" font-size="14.00" fill="#000000">116</text>
</g>
<!-- 5&#45;&gt;11 -->
<g id="edge10" class="edge">
<title>5-&gt;11</title>
<path fill="none" stroke="#000000" d="M255.0851,-799.656C250.0996,-787.0071 243.2782,-769.7002 237.6066,-755.3105"/>
<polygon fill="#000000" stroke="#000000" points="240.8237,-753.9276 233.9005,-745.9076 234.3113,-756.4945 240.8237,-753.9276"/>
<text text-anchor="middle" x="257.5" y="-768.6" font-family="Times,serif" font-size="14.00" fill="#000000">184</text>
</g>
<!-- 7 -->
<g id="node10" class="node">
<title>7</title>
<ellipse fill="none" stroke="#000000" cx="299" cy="-728.4" rx="27" ry="18"/>
<text text-anchor="middle" x="299" y="-724.2" font-family="Times,serif" font-size="14.00" fill="#000000">7</text>
</g>
<!-- 5&#45;&gt;7 -->
<g id="edge11" class="edge">
<title>5-&gt;7</title>
<path fill="none" stroke="#000000" d="M269.31,-799.656C274.5804,-787.0071 281.7916,-769.7002 287.7873,-755.3105"/>
<polygon fill="#000000" stroke="#000000" points="291.0897,-756.4845 291.7052,-745.9076 284.6282,-753.7922 291.0897,-756.4845"/>
<text text-anchor="middle" x="293.5" y="-768.6" font-family="Times,serif" font-size="14.00" fill="#000000">112</text>
</g>
<!-- 6&#45;&gt;9 -->
<g id="edge12" class="edge">
<title>6-&gt;9</title>
<path fill="none" stroke="#000000" d="M125.31,-799.656C130.5804,-787.0071 137.7916,-769.7002 143.7873,-755.3105"/>
<polygon fill="#000000" stroke="#000000" points="147.0897,-756.4845 147.7052,-745.9076 140.6282,-753.7922 147.0897,-756.4845"/>
<text text-anchor="middle" x="147" y="-768.6" font-family="Times,serif" font-size="14.00" fill="#000000">38</text>
</g>
<!-- 8 -->
<g id="node11" class="node">
<title>8</title>
<ellipse fill="none" stroke="#000000" cx="83" cy="-728.4" rx="27" ry="18"/>
<text text-anchor="middle" x="83" y="-724.2" font-family="Times,serif" font-size="14.00" fill="#000000">8</text>
</g>
<!-- 6&#45;&gt;8 -->
<g id="edge13" class="edge">
<title>6-&gt;8</title>
<path fill="none" stroke="#000000" d="M103.7878,-801.7696C98.9928,-795.7571 94.0807,-788.5492 91,-781.2 87.81,-773.5901 85.8712,-764.8898 84.6991,-756.777"/>
<polygon fill="#000000" stroke="#000000" points="88.1497,-756.1402 83.5591,-746.5916 81.1932,-756.9188 88.1497,-756.1402"/>
<text text-anchor="middle" x="98" y="-768.6" font-family="Times,serif" font-size="14.00" fill="#000000">44</text>
</g>
<!-- 13 -->
<g id="node13" class="node">
<title>13</title>
<ellipse fill="none" stroke="#000000" cx="262" cy="-639.6" rx="27" ry="18"/>
<text text-anchor="middle" x="262" y="-635.4" font-family="Times,serif" font-size="14.00" fill="#000000">13</text>
</g>
<!-- 11&#45;&gt;13 -->
<g id="edge23" class="edge">
<title>11-&gt;13</title>
<path fill="none" stroke="#000000" d="M233.9149,-710.856C238.9004,-698.2071 245.7218,-680.9002 251.3934,-666.5105"/>
<polygon fill="#000000" stroke="#000000" points="254.6887,-667.6945 255.0995,-657.1076 248.1763,-665.1276 254.6887,-667.6945"/>
<text text-anchor="middle" x="254" y="-679.8" font-family="Times,serif" font-size="14.00" fill="#000000">74</text>
</g>
<!-- 14 -->
<g id="node16" class="node">
<title>14</title>
<ellipse fill="none" stroke="#000000" cx="187" cy="-639.6" rx="27" ry="18"/>
<text text-anchor="middle" x="187" y="-635.4" font-family="Times,serif" font-size="14.00" fill="#000000">14</text>
</g>
<!-- 11&#45;&gt;14 -->
<g id="edge22" class="edge">
<title>11-&gt;14</title>
<path fill="none" stroke="#000000" d="M219.0973,-710.856C213.3996,-698.2071 205.6037,-680.9002 199.1219,-666.5105"/>
<polygon fill="#000000" stroke="#000000" points="202.1846,-664.7878 194.8863,-657.1076 195.8022,-667.6628 202.1846,-664.7878"/>
<text text-anchor="middle" x="217" y="-679.8" font-family="Times,serif" font-size="14.00" fill="#000000">72</text>
</g>
<!-- 10 -->
<g id="node14" class="node">
<title>10</title>
<ellipse fill="none" stroke="#000000" cx="113" cy="-639.6" rx="27" ry="18"/>
<text text-anchor="middle" x="113" y="-635.4" font-family="Times,serif" font-size="14.00" fill="#000000">10</text>
</g>
<!-- 9&#45;&gt;10 -->
<g id="edge19" class="edge">
<title>9-&gt;10</title>
<path fill="none" stroke="#000000" d="M146.7022,-710.856C140.6807,-698.125 132.4275,-680.6753 125.5955,-666.2306"/>
<polygon fill="#000000" stroke="#000000" points="128.5773,-664.3488 121.1377,-656.8054 122.2494,-667.3418 128.5773,-664.3488"/>
<text text-anchor="middle" x="145" y="-679.8" font-family="Times,serif" font-size="14.00" fill="#000000">20</text>
</g>
<!-- 9&#45;&gt;14 -->
<g id="edge18" class="edge">
<title>9-&gt;14</title>
<path fill="none" stroke="#000000" d="M161.3222,-710.856C165.8365,-698.3287 171.9972,-681.2326 177.1526,-666.9264"/>
<polygon fill="#000000" stroke="#000000" points="180.5934,-667.702 180.691,-657.1076 174.008,-665.3288 180.5934,-667.702"/>
<text text-anchor="middle" x="184.5" y="-679.8" font-family="Times,serif" font-size="14.00" fill="#000000">188</text>
</g>
<!-- 12 -->
<g id="node12" class="node">
<title>12</title>
<ellipse fill="none" stroke="#000000" cx="335" cy="-639.6" rx="27" ry="18"/>
<text text-anchor="middle" x="335" y="-635.4" font-family="Times,serif" font-size="14.00" fill="#000000">12</text>
</g>
<!-- 7&#45;&gt;12 -->
<g id="edge14" class="edge">
<title>7-&gt;12</title>
<path fill="none" stroke="#000000" d="M306.1124,-710.856C311.2404,-698.2071 318.2567,-680.9002 324.0903,-666.5105"/>
<polygon fill="#000000" stroke="#000000" points="327.3888,-667.69 327.9023,-657.1076 320.9016,-665.06 327.3888,-667.69"/>
<text text-anchor="middle" x="330.5" y="-679.8" font-family="Times,serif" font-size="14.00" fill="#000000">222</text>
</g>
<!-- 7&#45;&gt;13 -->
<g id="edge15" class="edge">
<title>7-&gt;13</title>
<path fill="none" stroke="#000000" d="M291.69,-710.856C286.4196,-698.2071 279.2084,-680.9002 273.2127,-666.5105"/>
<polygon fill="#000000" stroke="#000000" points="276.3718,-664.9922 269.2948,-657.1076 269.9103,-667.6845 276.3718,-664.9922"/>
<text text-anchor="middle" x="290" y="-679.8" font-family="Times,serif" font-size="14.00" fill="#000000">66</text>
</g>
<!-- 8&#45;&gt;10 -->
<g id="edge16" class="edge">
<title>8-&gt;10</title>
<path fill="none" stroke="#000000" d="M84.452,-710.3904C85.6859,-699.9872 87.9359,-686.7872 92,-675.6 93.2862,-672.0593 94.9179,-668.4699 96.7012,-664.9979"/>
<polygon fill="#000000" stroke="#000000" points="99.7992,-666.6292 101.643,-656.196 93.6954,-663.2022 99.7992,-666.6292"/>
<text text-anchor="middle" x="99" y="-679.8" font-family="Times,serif" font-size="14.00" fill="#000000">38</text>
</g>
<!-- 15 -->
<g id="node15" class="node">
<title>15</title>
<ellipse fill="none" stroke="#000000" cx="27" cy="-639.6" rx="27" ry="18"/>
<text text-anchor="middle" x="27" y="-635.4" font-family="Times,serif" font-size="14.00" fill="#000000">15</text>
</g>
<!-- 8&#45;&gt;15 -->
<g id="edge17" class="edge">
<title>8-&gt;15</title>
<path fill="none" stroke="#000000" d="M72.4668,-711.6974C64.1757,-698.5501 52.4825,-680.008 43.0308,-665.0203"/>
<polygon fill="#000000" stroke="#000000" points="45.7807,-662.8192 37.4859,-656.2277 39.8597,-666.5532 45.7807,-662.8192"/>
<text text-anchor="middle" x="71.5" y="-679.8" font-family="Times,serif" font-size="14.00" fill="#000000">440</text>
</g>
<!-- 18 -->
<g id="node19" class="node">
<title>18</title>
<ellipse fill="none" stroke="#000000" cx="305" cy="-550.8" rx="27" ry="18"/>
<text text-anchor="middle" x="305" y="-546.6" font-family="Times,serif" font-size="14.00" fill="#000000">18</text>
</g>
<!-- 12&#45;&gt;18 -->
<g id="edge24" class="edge">
<title>12-&gt;18</title>
<path fill="none" stroke="#000000" d="M328.9291,-621.63C324.7132,-609.1511 319.0178,-592.2928 314.2411,-578.1536"/>
<polygon fill="#000000" stroke="#000000" points="317.4761,-576.7939 310.9595,-568.4402 310.8444,-579.0344 317.4761,-576.7939"/>
<text text-anchor="middle" x="332.5" y="-591" font-family="Times,serif" font-size="14.00" fill="#000000">144</text>
</g>
<!-- 20 -->
<g id="node20" class="node">
<title>20</title>
<ellipse fill="none" stroke="#000000" cx="328" cy="-462" rx="27" ry="18"/>
<text text-anchor="middle" x="328" y="-457.8" font-family="Times,serif" font-size="14.00" fill="#000000">20</text>
</g>
<!-- 12&#45;&gt;20 -->
<g id="edge25" class="edge">
<title>12-&gt;20</title>
<path fill="none" stroke="#000000" d="M342.1427,-621.9405C344.1266,-616.1903 346.008,-609.7128 347,-603.6 353.4048,-564.132 344.2095,-518.2225 336.5212,-489.6339"/>
<polygon fill="#000000" stroke="#000000" points="339.8679,-488.6059 333.7885,-479.9289 333.1299,-490.5032 339.8679,-488.6059"/>
<text text-anchor="middle" x="359.5" y="-546.6" font-family="Times,serif" font-size="14.00" fill="#000000">520</text>
</g>
<!-- 13&#45;&gt;18 -->
<g id="edge27" class="edge">
<title>13-&gt;18</title>
<path fill="none" stroke="#000000" d="M270.4954,-622.056C276.7195,-609.2025 285.2726,-591.5393 292.3059,-577.0148"/>
<polygon fill="#000000" stroke="#000000" points="295.4603,-578.5311 296.6685,-568.0054 289.1601,-575.4803 295.4603,-578.5311"/>
<text text-anchor="middle" x="297.5" y="-591" font-family="Times,serif" font-size="14.00" fill="#000000">140</text>
</g>
<!-- 17 -->
<g id="node21" class="node">
<title>17</title>
<ellipse fill="none" stroke="#000000" cx="231" cy="-550.8" rx="27" ry="18"/>
<text text-anchor="middle" x="231" y="-546.6" font-family="Times,serif" font-size="14.00" fill="#000000">17</text>
</g>
<!-- 13&#45;&gt;17 -->
<g id="edge26" class="edge">
<title>13-&gt;17</title>
<path fill="none" stroke="#000000" d="M254.954,-622.1C252.6614,-616.2458 250.1541,-609.6666 248,-603.6 245.0677,-595.3418 242.072,-586.2829 239.4285,-578.0361"/>
<polygon fill="#000000" stroke="#000000" points="242.7609,-576.9658 236.4066,-568.488 236.0872,-579.078 242.7609,-576.9658"/>
<text text-anchor="middle" x="258.5" y="-591" font-family="Times,serif" font-size="14.00" fill="#000000">202</text>
</g>
<!-- 16 -->
<g id="node17" class="node">
<title>16</title>
<ellipse fill="none" stroke="#000000" cx="156" cy="-550.8" rx="27" ry="18"/>
<text text-anchor="middle" x="156" y="-546.6" font-family="Times,serif" font-size="14.00" fill="#000000">16</text>
</g>
<!-- 10&#45;&gt;16 -->
<g id="edge20" class="edge">
<title>10-&gt;16</title>
<path fill="none" stroke="#000000" d="M118.2919,-621.5522C121.6391,-611.1363 126.3891,-597.9363 132,-586.8 133.8484,-583.1314 136.0022,-579.3874 138.2468,-575.7676"/>
<polygon fill="#000000" stroke="#000000" points="141.3457,-577.4237 143.8905,-567.139 135.4875,-573.592 141.3457,-577.4237"/>
<text text-anchor="middle" x="142.5" y="-591" font-family="Times,serif" font-size="14.00" fill="#000000">120</text>
</g>
<!-- 19 -->
<g id="node18" class="node">
<title>19</title>
<ellipse fill="none" stroke="#000000" cx="68" cy="-550.8" rx="27" ry="18"/>
<text text-anchor="middle" x="68" y="-546.6" font-family="Times,serif" font-size="14.00" fill="#000000">19</text>
</g>
<!-- 10&#45;&gt;19 -->
<g id="edge21" class="edge">
<title>10-&gt;19</title>
<path fill="none" stroke="#000000" d="M104.3235,-622.4785C97.7869,-609.5795 88.7089,-591.6655 81.2635,-576.9734"/>
<polygon fill="#000000" stroke="#000000" points="84.2922,-575.2069 76.6498,-567.869 78.0481,-578.3711 84.2922,-575.2069"/>
<text text-anchor="middle" x="105.5" y="-591" font-family="Times,serif" font-size="14.00" fill="#000000">222</text>
</g>
<!-- 15&#45;&gt;19 -->
<g id="edge30" class="edge">
<title>15-&gt;19</title>
<path fill="none" stroke="#000000" d="M23.8895,-621.6977C22.8676,-611.0878 23.0481,-597.6414 28,-586.8 30.8021,-580.6653 35.2044,-575.1279 40.0818,-570.3386"/>
<polygon fill="#000000" stroke="#000000" points="42.7421,-572.6624 47.9754,-563.4503 38.1396,-567.3882 42.7421,-572.6624"/>
<text text-anchor="middle" x="38.5" y="-591" font-family="Times,serif" font-size="14.00" fill="#000000">184</text>
</g>
<!-- 22 -->
<g id="node22" class="node">
<title>22</title>
<ellipse fill="none" stroke="#000000" cx="27" cy="-462" rx="27" ry="18"/>
<text text-anchor="middle" x="27" y="-457.8" font-family="Times,serif" font-size="14.00" fill="#000000">22</text>
</g>
<!-- 15&#45;&gt;22 -->
<g id="edge31" class="edge">
<title>15-&gt;22</title>
<path fill="none" stroke="#000000" d="M21.8065,-621.7459C17.9575,-607.5417 13.0404,-587.0849 11,-568.8 9.2256,-552.8987 9.2256,-548.7013 11,-532.8 12.61,-518.3721 16.0111,-502.5919 19.2653,-489.5983"/>
<polygon fill="#000000" stroke="#000000" points="22.6696,-490.4138 21.8065,-479.8541 15.8962,-488.6472 22.6696,-490.4138"/>
<text text-anchor="middle" x="21.5" y="-546.6" font-family="Times,serif" font-size="14.00" fill="#000000">472</text>
</g>
<!-- 14&#45;&gt;16 -->
<g id="edge28" class="edge">
<title>14-&gt;16</title>
<path fill="none" stroke="#000000" d="M172.4873,-624.289C167.6597,-618.2894 162.8039,-611.0592 160,-603.6 157.1212,-595.9415 155.7606,-587.2264 155.2105,-579.115"/>
<polygon fill="#000000" stroke="#000000" points="158.7033,-578.8257 154.8948,-568.9391 151.7067,-579.0429 158.7033,-578.8257"/>
<text text-anchor="middle" x="170.5" y="-591" font-family="Times,serif" font-size="14.00" fill="#000000">196</text>
</g>
<!-- 14&#45;&gt;17 -->
<g id="edge29" class="edge">
<title>14-&gt;17</title>
<path fill="none" stroke="#000000" d="M195.4836,-622.4785C201.8341,-609.6622 210.6376,-591.8949 217.891,-577.2563"/>
<polygon fill="#000000" stroke="#000000" points="221.0885,-578.6863 222.3923,-568.172 214.8163,-575.5784 221.0885,-578.6863"/>
<text text-anchor="middle" x="222.5" y="-591" font-family="Times,serif" font-size="14.00" fill="#000000">152</text>
</g>
<!-- 23 -->
<g id="node23" class="node">
<title>23</title>
<ellipse fill="none" stroke="#000000" cx="102" cy="-462" rx="27" ry="18"/>
<text text-anchor="middle" x="102" y="-457.8" font-family="Times,serif" font-size="14.00" fill="#000000">23</text>
</g>
<!-- 16&#45;&gt;23 -->
<g id="edge32" class="edge">
<title>16-&gt;23</title>
<path fill="none" stroke="#000000" d="M145.843,-534.0974C137.8986,-521.0333 126.715,-502.6425 117.6316,-487.7053"/>
<polygon fill="#000000" stroke="#000000" points="120.4814,-485.6553 112.295,-478.9296 114.5004,-489.2924 120.4814,-485.6553"/>
<text text-anchor="middle" x="141" y="-502.2" font-family="Times,serif" font-size="14.00" fill="#000000">94</text>
</g>
<!-- 21 -->
<g id="node24" class="node">
<title>21</title>
<ellipse fill="none" stroke="#000000" cx="179" cy="-462" rx="27" ry="18"/>
<text text-anchor="middle" x="179" y="-457.8" font-family="Times,serif" font-size="14.00" fill="#000000">21</text>
</g>
<!-- 16&#45;&gt;21 -->
<g id="edge33" class="edge">
<title>16-&gt;21</title>
<path fill="none" stroke="#000000" d="M155.5652,-532.3917C155.773,-522.0946 156.7921,-509.13 160,-498 160.989,-494.5686 162.3279,-491.0892 163.8399,-487.7145"/>
<polygon fill="#000000" stroke="#000000" points="167.0533,-489.1146 168.4132,-478.6074 160.7977,-485.9732 167.0533,-489.1146"/>
<text text-anchor="middle" x="170.5" y="-502.2" font-family="Times,serif" font-size="14.00" fill="#000000">198</text>
</g>
<!-- 19&#45;&gt;22 -->
<g id="edge38" class="edge">
<title>19-&gt;22</title>
<path fill="none" stroke="#000000" d="M59.8997,-533.256C54.0217,-520.525 45.9649,-503.0753 39.2957,-488.6306"/>
<polygon fill="#000000" stroke="#000000" points="42.3135,-486.8172 34.9439,-479.2054 35.9582,-489.7516 42.3135,-486.8172"/>
<text text-anchor="middle" x="59" y="-502.2" font-family="Times,serif" font-size="14.00" fill="#000000">60</text>
</g>
<!-- 19&#45;&gt;23 -->
<g id="edge39" class="edge">
<title>19-&gt;23</title>
<path fill="none" stroke="#000000" d="M71.0985,-532.8003C73.2147,-522.4004 76.4647,-509.2004 81,-498 82.4139,-494.5083 84.1212,-490.9479 85.9441,-487.4912"/>
<polygon fill="#000000" stroke="#000000" points="89.0391,-489.1284 90.9175,-478.7014 82.9468,-485.6812 89.0391,-489.1284"/>
<text text-anchor="middle" x="88" y="-502.2" font-family="Times,serif" font-size="14.00" fill="#000000">40</text>
</g>
<!-- 18&#45;&gt;20 -->
<g id="edge37" class="edge">
<title>18-&gt;20</title>
<path fill="none" stroke="#000000" d="M309.6544,-532.83C312.8654,-520.4327 317.196,-503.713 320.8433,-489.6312"/>
<polygon fill="#000000" stroke="#000000" points="324.2333,-490.5014 323.3525,-479.9433 317.4569,-488.7462 324.2333,-490.5014"/>
<text text-anchor="middle" x="325" y="-502.2" font-family="Times,serif" font-size="14.00" fill="#000000">60</text>
</g>
<!-- 24 -->
<g id="node25" class="node">
<title>24</title>
<ellipse fill="none" stroke="#000000" cx="254" cy="-462" rx="27" ry="18"/>
<text text-anchor="middle" x="254" y="-457.8" font-family="Times,serif" font-size="14.00" fill="#000000">24</text>
</g>
<!-- 18&#45;&gt;24 -->
<g id="edge36" class="edge">
<title>18-&gt;24</title>
<path fill="none" stroke="#000000" d="M295.1667,-533.6785C287.6879,-520.6566 277.2738,-502.5238 268.7914,-487.7545"/>
<polygon fill="#000000" stroke="#000000" points="271.8185,-485.9975 263.8031,-479.069 265.7484,-489.4837 271.8185,-485.9975"/>
<text text-anchor="middle" x="294.5" y="-502.2" font-family="Times,serif" font-size="14.00" fill="#000000">146</text>
</g>
<!-- 28 -->
<g id="node26" class="node">
<title>28</title>
<ellipse fill="none" stroke="#000000" cx="285" cy="-373.2" rx="27" ry="18"/>
<text text-anchor="middle" x="285" y="-369" font-family="Times,serif" font-size="14.00" fill="#000000">28</text>
</g>
<!-- 20&#45;&gt;28 -->
<g id="edge40" class="edge">
<title>20-&gt;28</title>
<path fill="none" stroke="#000000" d="M319.5046,-444.456C313.2805,-431.6025 304.7274,-413.9393 297.6941,-399.4148"/>
<polygon fill="#000000" stroke="#000000" points="300.8399,-397.8803 293.3315,-390.4054 294.5397,-400.9311 300.8399,-397.8803"/>
<text text-anchor="middle" x="320.5" y="-413.4" font-family="Times,serif" font-size="14.00" fill="#000000">280</text>
</g>
<!-- 17&#45;&gt;21 -->
<g id="edge35" class="edge">
<title>17-&gt;21</title>
<path fill="none" stroke="#000000" d="M220.9739,-533.6785C213.2996,-520.5732 202.5939,-502.2911 193.9154,-487.4709"/>
<polygon fill="#000000" stroke="#000000" points="196.8925,-485.6285 188.819,-478.7678 190.852,-489.1658 196.8925,-485.6285"/>
<text text-anchor="middle" x="219.5" y="-502.2" font-family="Times,serif" font-size="14.00" fill="#000000">102</text>
</g>
<!-- 17&#45;&gt;24 -->
<g id="edge34" class="edge">
<title>17-&gt;24</title>
<path fill="none" stroke="#000000" d="M235.6544,-532.83C238.8654,-520.4327 243.196,-503.713 246.8433,-489.6312"/>
<polygon fill="#000000" stroke="#000000" points="250.2333,-490.5014 249.3525,-479.9433 243.4569,-488.7462 250.2333,-490.5014"/>
<text text-anchor="middle" x="251" y="-502.2" font-family="Times,serif" font-size="14.00" fill="#000000">56</text>
</g>
<!-- 25 -->
<g id="node29" class="node">
<title>25</title>
<ellipse fill="none" stroke="#000000" cx="69" cy="-373.2" rx="27" ry="18"/>
<text text-anchor="middle" x="69" y="-369" font-family="Times,serif" font-size="14.00" fill="#000000">25</text>
</g>
<!-- 22&#45;&gt;25 -->
<g id="edge43" class="edge">
<title>22-&gt;25</title>
<path fill="none" stroke="#000000" d="M30.919,-443.8399C33.5586,-433.3866 37.5586,-420.1866 43,-409.2 45.0177,-405.126 47.4854,-401.0188 50.0888,-397.1097"/>
<polygon fill="#000000" stroke="#000000" points="52.9417,-399.1372 55.8825,-388.9587 47.2362,-395.0817 52.9417,-399.1372"/>
<text text-anchor="middle" x="53.5" y="-413.4" font-family="Times,serif" font-size="14.00" fill="#000000">124</text>
</g>
<!-- 26 -->
<g id="node28" class="node">
<title>26</title>
<ellipse fill="none" stroke="#000000" cx="141" cy="-373.2" rx="27" ry="18"/>
<text text-anchor="middle" x="141" y="-369" font-family="Times,serif" font-size="14.00" fill="#000000">26</text>
</g>
<!-- 23&#45;&gt;26 -->
<g id="edge44" class="edge">
<title>23-&gt;26</title>
<path fill="none" stroke="#000000" d="M109.7051,-444.456C115.2604,-431.8071 122.8614,-414.5002 129.1812,-400.1105"/>
<polygon fill="#000000" stroke="#000000" points="132.4942,-401.2709 133.3109,-390.7076 126.0851,-398.456 132.4942,-401.2709"/>
<text text-anchor="middle" x="135.5" y="-413.4" font-family="Times,serif" font-size="14.00" fill="#000000">190</text>
</g>
<!-- 23&#45;&gt;25 -->
<g id="edge45" class="edge">
<title>23-&gt;25</title>
<path fill="none" stroke="#000000" d="M86.1145,-447.3211C80.6383,-441.288 75.105,-433.8708 72,-426 69.0013,-418.3986 67.7251,-409.7009 67.336,-401.5879"/>
<polygon fill="#000000" stroke="#000000" points="70.8348,-401.3762 67.2655,-391.4007 63.8349,-401.4248 70.8348,-401.3762"/>
<text text-anchor="middle" x="82.5" y="-413.4" font-family="Times,serif" font-size="14.00" fill="#000000">112</text>
</g>
<!-- 27 -->
<g id="node27" class="node">
<title>27</title>
<ellipse fill="none" stroke="#000000" cx="213" cy="-373.2" rx="27" ry="18"/>
<text text-anchor="middle" x="213" y="-369" font-family="Times,serif" font-size="14.00" fill="#000000">27</text>
</g>
<!-- 21&#45;&gt;27 -->
<g id="edge41" class="edge">
<title>21-&gt;27</title>
<path fill="none" stroke="#000000" d="M184.6086,-444.2567C187.9781,-433.9423 192.4781,-420.7423 197,-409.2 198.1975,-406.1433 199.5085,-402.9672 200.8482,-399.8239"/>
<polygon fill="#000000" stroke="#000000" points="204.0625,-401.2092 204.8692,-390.6451 197.6507,-398.4004 204.0625,-401.2092"/>
<text text-anchor="middle" x="207.5" y="-413.4" font-family="Times,serif" font-size="14.00" fill="#000000">162</text>
</g>
<!-- 21&#45;&gt;26 -->
<g id="edge42" class="edge">
<title>21-&gt;26</title>
<path fill="none" stroke="#000000" d="M171.4924,-444.456C166.0796,-431.8071 158.6735,-414.5002 152.5158,-400.1105"/>
<polygon fill="#000000" stroke="#000000" points="155.644,-398.5242 148.492,-390.7076 149.2085,-401.2782 155.644,-398.5242"/>
<text text-anchor="middle" x="171" y="-413.4" font-family="Times,serif" font-size="14.00" fill="#000000">82</text>
</g>
<!-- 24&#45;&gt;28 -->
<g id="edge47" class="edge">
<title>24-&gt;28</title>
<path fill="none" stroke="#000000" d="M260.1246,-444.456C264.4695,-432.0101 270.3886,-415.0545 275.363,-400.8055"/>
<polygon fill="#000000" stroke="#000000" points="278.7905,-401.6064 278.782,-391.0115 272.1816,-399.2992 278.7905,-401.6064"/>
<text text-anchor="middle" x="282.5" y="-413.4" font-family="Times,serif" font-size="14.00" fill="#000000">250</text>
</g>
<!-- 24&#45;&gt;27 -->
<g id="edge46" class="edge">
<title>24-&gt;27</title>
<path fill="none" stroke="#000000" d="M245.8997,-444.456C240.0217,-431.725 231.9649,-414.2753 225.2957,-399.8306"/>
<polygon fill="#000000" stroke="#000000" points="228.3135,-398.0172 220.9439,-390.4054 221.9582,-400.9516 228.3135,-398.0172"/>
<text text-anchor="middle" x="247.5" y="-413.4" font-family="Times,serif" font-size="14.00" fill="#000000">104</text>
</g>
<!-- 29 -->
<g id="node32" class="node">
<title>29</title>
<ellipse fill="none" stroke="#000000" cx="249" cy="-284.4" rx="27" ry="18"/>
<text text-anchor="middle" x="249" y="-280.2" font-family="Times,serif" font-size="14.00" fill="#000000">29</text>
</g>
<!-- 28&#45;&gt;29 -->
<g id="edge53" class="edge">
<title>28-&gt;29</title>
<path fill="none" stroke="#000000" d="M277.8876,-355.656C272.7596,-343.0071 265.7433,-325.7002 259.9097,-311.3105"/>
<polygon fill="#000000" stroke="#000000" points="263.0984,-309.86 256.0977,-301.9076 256.6112,-312.49 263.0984,-309.86"/>
<text text-anchor="middle" x="277" y="-324.6" font-family="Times,serif" font-size="14.00" fill="#000000">58</text>
</g>
<!-- 31 -->
<g id="node31" class="node">
<title>31</title>
<ellipse fill="none" stroke="#000000" cx="177" cy="-284.4" rx="27" ry="18"/>
<text text-anchor="middle" x="177" y="-280.2" font-family="Times,serif" font-size="14.00" fill="#000000">31</text>
</g>
<!-- 27&#45;&gt;31 -->
<g id="edge52" class="edge">
<title>27-&gt;31</title>
<path fill="none" stroke="#000000" d="M205.8876,-355.656C200.7596,-343.0071 193.7433,-325.7002 187.9097,-311.3105"/>
<polygon fill="#000000" stroke="#000000" points="191.0984,-309.86 184.0977,-301.9076 184.6112,-312.49 191.0984,-309.86"/>
<text text-anchor="middle" x="208.5" y="-324.6" font-family="Times,serif" font-size="14.00" fill="#000000">132</text>
</g>
<!-- 27&#45;&gt;29 -->
<g id="edge51" class="edge">
<title>27-&gt;29</title>
<path fill="none" stroke="#000000" d="M220.1124,-355.656C225.2404,-343.0071 232.2567,-325.7002 238.0903,-311.3105"/>
<polygon fill="#000000" stroke="#000000" points="241.3888,-312.49 241.9023,-301.9076 234.9016,-309.86 241.3888,-312.49"/>
<text text-anchor="middle" x="244.5" y="-324.6" font-family="Times,serif" font-size="14.00" fill="#000000">156</text>
</g>
<!-- 30 -->
<g id="node30" class="node">
<title>30</title>
<ellipse fill="none" stroke="#000000" cx="105" cy="-284.4" rx="27" ry="18"/>
<text text-anchor="middle" x="105" y="-280.2" font-family="Times,serif" font-size="14.00" fill="#000000">30</text>
</g>
<!-- 26&#45;&gt;30 -->
<g id="edge50" class="edge">
<title>26-&gt;30</title>
<path fill="none" stroke="#000000" d="M133.8876,-355.656C128.7596,-343.0071 121.7433,-325.7002 115.9097,-311.3105"/>
<polygon fill="#000000" stroke="#000000" points="119.0984,-309.86 112.0977,-301.9076 112.6112,-312.49 119.0984,-309.86"/>
<text text-anchor="middle" x="134" y="-324.6" font-family="Times,serif" font-size="14.00" fill="#000000">98</text>
</g>
<!-- 26&#45;&gt;31 -->
<g id="edge49" class="edge">
<title>26-&gt;31</title>
<path fill="none" stroke="#000000" d="M143.4381,-355.0917C145.2508,-344.6556 148.2508,-331.4556 153,-320.4 154.6214,-316.6256 156.6453,-312.821 158.8257,-309.1713"/>
<polygon fill="#000000" stroke="#000000" points="161.9284,-310.8192 164.4281,-300.5234 156.0535,-307.0131 161.9284,-310.8192"/>
<text text-anchor="middle" x="163.5" y="-324.6" font-family="Times,serif" font-size="14.00" fill="#000000">128</text>
</g>
<!-- 25&#45;&gt;30 -->
<g id="edge48" class="edge">
<title>25-&gt;30</title>
<path fill="none" stroke="#000000" d="M67.0729,-354.9206C66.6805,-344.4275 67.4305,-331.2275 72,-320.4 74.184,-315.2249 77.4477,-310.3174 81.086,-305.8855"/>
<polygon fill="#000000" stroke="#000000" points="83.7095,-308.2031 87.8871,-298.4667 78.5496,-303.4728 83.7095,-308.2031"/>
<text text-anchor="middle" x="82.5" y="-324.6" font-family="Times,serif" font-size="14.00" fill="#000000">336</text>
</g>
<!-- 33 -->
<g id="node34" class="node">
<title>33</title>
<ellipse fill="none" stroke="#000000" cx="153" cy="-195.6" rx="27" ry="18"/>
<text text-anchor="middle" x="153" y="-191.4" font-family="Times,serif" font-size="14.00" fill="#000000">33</text>
</g>
<!-- 30&#45;&gt;33 -->
<g id="edge55" class="edge">
<title>30-&gt;33</title>
<path fill="none" stroke="#000000" d="M114.2549,-267.2785C121.2273,-254.3795 130.9106,-236.4655 138.8522,-221.7734"/>
<polygon fill="#000000" stroke="#000000" points="142.0973,-223.1304 143.7735,-212.669 135.9393,-219.8017 142.0973,-223.1304"/>
<text text-anchor="middle" x="144.5" y="-235.8" font-family="Times,serif" font-size="14.00" fill="#000000">188</text>
</g>
<!-- 32 -->
<g id="node33" class="node">
<title>32</title>
<ellipse fill="none" stroke="#000000" cx="225" cy="-195.6" rx="27" ry="18"/>
<text text-anchor="middle" x="225" y="-191.4" font-family="Times,serif" font-size="14.00" fill="#000000">32</text>
</g>
<!-- 31&#45;&gt;32 -->
<g id="edge57" class="edge">
<title>31-&gt;32</title>
<path fill="none" stroke="#000000" d="M186.2549,-267.2785C193.2273,-254.3795 202.9106,-236.4655 210.8522,-221.7734"/>
<polygon fill="#000000" stroke="#000000" points="214.0973,-223.1304 215.7735,-212.669 207.9393,-219.8017 214.0973,-223.1304"/>
<text text-anchor="middle" x="212" y="-235.8" font-family="Times,serif" font-size="14.00" fill="#000000">84</text>
</g>
<!-- 31&#45;&gt;33 -->
<g id="edge56" class="edge">
<title>31-&gt;33</title>
<path fill="none" stroke="#000000" d="M172.1432,-266.43C168.7926,-254.0327 164.2738,-237.313 160.4679,-223.2312"/>
<polygon fill="#000000" stroke="#000000" points="163.8375,-222.2837 157.8495,-213.5433 157.0799,-224.1101 163.8375,-222.2837"/>
<text text-anchor="middle" x="175" y="-235.8" font-family="Times,serif" font-size="14.00" fill="#000000">62</text>
</g>
<!-- 29&#45;&gt;32 -->
<g id="edge54" class="edge">
<title>29-&gt;32</title>
<path fill="none" stroke="#000000" d="M244.1432,-266.43C240.7926,-254.0327 236.2738,-237.313 232.4679,-223.2312"/>
<polygon fill="#000000" stroke="#000000" points="235.8375,-222.2837 229.8495,-213.5433 229.0799,-224.1101 235.8375,-222.2837"/>
<text text-anchor="middle" x="249.5" y="-235.8" font-family="Times,serif" font-size="14.00" fill="#000000">392</text>
</g>
<!-- 34 -->
<g id="node35" class="node">
<title>34</title>
<ellipse fill="none" stroke="#000000" cx="189" cy="-106.8" rx="27" ry="18"/>
<text text-anchor="middle" x="189" y="-102.6" font-family="Times,serif" font-size="14.00" fill="#000000">34</text>
</g>
<!-- 32&#45;&gt;34 -->
<g id="edge58" class="edge">
<title>32-&gt;34</title>
<path fill="none" stroke="#000000" d="M217.8876,-178.056C212.7596,-165.4071 205.7433,-148.1002 199.9097,-133.7105"/>
<polygon fill="#000000" stroke="#000000" points="203.0984,-132.26 196.0977,-124.3076 196.6112,-134.89 203.0984,-132.26"/>
<text text-anchor="middle" x="217" y="-147" font-family="Times,serif" font-size="14.00" fill="#000000">92</text>
</g>
<!-- 33&#45;&gt;34 -->
<g id="edge59" class="edge">
<title>33-&gt;34</title>
<path fill="none" stroke="#000000" d="M160.1124,-178.056C165.2404,-165.4071 172.2567,-148.1002 178.0903,-133.7105"/>
<polygon fill="#000000" stroke="#000000" points="181.3888,-134.89 181.9023,-124.3076 174.9016,-132.26 181.3888,-134.89"/>
<text text-anchor="middle" x="185.5" y="-147" font-family="Times,serif" font-size="14.00" fill="#000000">158</text>
</g>
<!-- 35 -->
<g id="node36" class="node">
<title>35</title>
<ellipse fill="none" stroke="#000000" cx="189" cy="-18" rx="27" ry="18"/>
<text text-anchor="middle" x="189" y="-13.8" font-family="Times,serif" font-size="14.00" fill="#000000">35</text>
</g>
<!-- 34&#45;&gt;35 -->
<g id="edge60" class="edge">
<title>34-&gt;35</title>
<path fill="none" stroke="#000000" d="M189,-88.4006C189,-76.2949 189,-60.2076 189,-46.4674"/>
<polygon fill="#000000" stroke="#000000" points="192.5001,-46.072 189,-36.072 185.5001,-46.0721 192.5001,-46.072"/>
<text text-anchor="middle" x="196" y="-58.2" font-family="Times,serif" font-size="14.00" fill="#000000">49</text>
</g>
</g>
</svg>